<svg preserveAspectRatio="none" overflow="visible" style="display: block;" width="64" height="64.0001" viewBox="0 0 64 64.0001" fill="none" xmlns="http://www.w3.org/2000/svg">
<g id="Layer 1">
<path id="Path 525" d="M6.16227 8.71412C13.6529 4.84873 21.6418 2.02645 29.9047 0.326551C32.9785 -0.380369 36.2063 0.0693758 38.9668 1.5892C46.0186 5.07429 52.5961 9.43842 58.5407 14.5764C59.5495 15.4239 60.2762 16.556 60.625 17.8232C63.045 26.1417 64.1757 34.7789 63.9779 43.4369C63.9779 44.6995 63.9779 46.1425 62.528 46.864C61.4997 46.9853 60.5264 47.3915 59.7188 48.0365C52.3561 53.3718 44.4967 57.9926 36.2482 61.8354C36.2482 61.0237 35.2513 60.9335 34.7076 60.6629C24.0144 54.4399 13.5025 48.0365 3.35305 41.0018C2.44685 40.3704 1.26879 39.8293 1.63127 38.2961C1.9646 37.3713 2.11836 36.3919 2.08437 35.41C2.08437 30.7202 2.99057 26.3911 3.53429 21.6111C4.07801 16.8311 5.34669 13.0432 6.16227 8.71412ZM55.4596 17.733C55.4596 16.6507 54.644 16.1998 53.9191 15.6587C48.5479 11.5528 42.7803 7.98788 36.7013 5.01638C36.1468 4.66281 35.5021 4.47489 34.8435 4.47489C34.185 4.47489 33.5403 4.66281 32.9858 5.01638C31.264 5.01638 29.5423 5.73789 27.8205 6.36921C26.0987 7.00053 24.4675 6.36921 23.1082 7.54167C20.7606 8.92193 18.1819 9.86907 15.4961 10.3375C14.4993 10.3375 14.0462 11.1492 14.2275 12.1413C13.1698 18.9544 12.4741 25.8183 12.1432 32.7044C12.1432 33.8768 12.7775 34.3278 13.5025 34.7787L36.2482 49.0286C36.6458 49.3081 37.1206 49.4582 37.6075 49.4582C38.0943 49.4582 38.5691 49.3081 38.9668 49.0286C44.4946 46.1425 50.0224 43.1663 55.369 40.0097C56.2441 39.5359 57.0145 38.8918 57.6345 38.1157C58.7219 38.1157 58.5407 37.4844 58.4501 36.8531C58.3595 36.2217 58.4501 33.5161 58.4501 31.8927C57.9007 27.0605 56.8995 22.2899 55.4596 17.6428V17.733Z" fill="#83091D"/>
<path id="Path 526" d="M36.2481 63.4589C35.7043 64.1805 35.1606 64.1805 34.345 63.4589C22.7866 57.2919 11.6193 50.4246 0.906201 42.8959C0 42.5351 0 42.1744 0 41.2725C0 40.3706 0.815581 41.2725 1.08744 40.2804C3.98729 42.3547 6.88713 44.4291 10.1495 46.4132C18.5805 52.019 27.2911 57.1964 36.2481 61.9257C36.2481 62.4669 35.1606 62.9178 36.2481 63.4589Z" fill="#7F0817"/>
<path id="Path 527" d="M36.2468 63.4588C35.6124 63.4588 36.2468 62.5569 36.2468 62.0158C44.5025 58.1156 52.3622 53.4342 59.7174 48.0365C60.525 47.3915 61.4983 46.9853 62.5266 46.864C58.7348 50.2765 54.6056 53.2982 50.2023 55.8829C45.7687 58.7876 41.1009 61.3216 36.2468 63.4588Z" fill="#561010"/>
<path id="Path 528" d="M1.17706 40.2803C1.17706 40.8214 0.633335 41.1822 0.089614 41.2723C0.253679 33.145 1.19433 25.0517 2.89884 17.1017C3.05518 14.3791 3.82976 11.7272 5.16434 9.34547C4.34876 13.3138 3.53318 17.1919 2.89884 21.2504C1.75179 26.8895 1.20505 32.6332 1.26768 38.3863L1.17706 40.2803Z" fill="#5D1212"/>
<path id="Path 529" d="M1.27003 38.3865C1.22007 32.6936 1.76675 27.0111 2.90119 21.431C3.53553 17.3725 4.35111 13.4944 5.16669 9.34571C5.25731 9.34571 5.71041 9.34571 6.16351 8.71438C5.34793 13.0435 4.07925 17.2823 3.53553 21.6114C2.99181 25.9405 2.17623 30.6303 2.08561 35.4103C2.1196 36.3922 1.96584 37.3716 1.63251 38.2964L1.27003 38.3865Z" fill="#AC7576"/>
<path id="Path 530" d="M34.7956 6.09892C30.2375 6.62941 25.763 7.71998 21.4744 9.34573C19.0277 10.1574 16.6716 11.1495 14.2248 12.0514C14.2248 11.0593 14.2248 10.5182 15.4935 10.2476C18.1616 9.86332 20.7394 9.00814 23.1056 7.72233C24.4649 6.82044 26.2773 7.091 27.8179 6.54987C29.3584 6.00874 31.2614 5.64798 32.9832 5.19704H34.3425L34.7956 6.09892Z" fill="#DAB24A"/>
<path id="Path 531" d="M54.8272 18.8153C55.3709 18.8153 55.3709 18.0938 55.4615 17.6428C56.723 22.3368 57.5422 27.1376 57.9083 31.9828C57.9083 33.6062 57.9083 35.3198 57.9083 36.9432C57.9083 38.5666 57.9083 38.3863 57.0927 38.2059C56.923 31.6878 56.1648 25.1982 54.8272 18.8153Z" fill="#E4CDA9"/>
<path id="Path 532" d="M48.4811 15.2079C49.5388 15.5575 50.4545 16.2383 51.0915 17.1486C51.7285 18.0589 52.0525 19.1498 52.0152 20.2584C52.0152 24.2268 52.9215 28.1951 53.2839 32.1634C53.4841 32.5706 53.5881 33.0178 53.5881 33.4711C53.5881 33.9244 53.4841 34.3717 53.2839 34.7789C47.9373 37.1238 42.8626 39.8294 37.7879 42.3547L21.6575 32.3438L29.9946 26.4815C30.9008 25.8502 30.7195 25.0385 30.7195 24.2268C30.7195 20.7996 30.7195 17.2822 30.7195 13.7648C30.9921 14.6463 30.9921 15.589 30.7195 16.4705C30.7195 22.1524 30.7195 27.7441 30.7195 33.426C30.7195 34.1475 30.7195 34.9592 30.7195 35.5906H45.3094C45.3094 33.6966 45.8531 31.983 45.3094 30.2694C44.5844 30.2694 44.4938 30.7204 44.3125 31.0811C43.2251 34.2377 43.2251 34.2377 39.8722 34.2377H37.8785C34.7974 34.2377 34.6162 34.2377 34.5256 30.9909C34.5256 24.2268 34.5256 17.4626 34.5256 10.7886C35.2505 11.6003 34.5256 12.6826 34.5256 13.6746V23.3249C39.0028 20.3322 43.6637 17.6212 48.4811 15.2079Z" fill="#D69E14"/>
<path id="Path 533" d="M48.4808 15.2076C43.7563 17.6308 39.1864 20.3416 34.7972 23.3246V13.6744C34.7972 12.6823 34.7972 11.6 34.7972 10.7883C33.0287 10.8895 31.2712 11.1308 29.5412 11.5098C29.5412 12.6823 31.0817 12.7725 31.1724 13.7646C31.1724 17.2819 31.1724 20.7993 31.1724 24.2265C31.1724 25.0382 31.1724 25.8499 30.4474 26.4812L22.1104 32.3435L20.8417 31.7122C19.9278 31.4577 19.1425 30.8727 18.6395 30.0719C18.1366 29.271 17.9524 28.3121 18.1231 27.3831C18.4518 22.5184 18.4518 17.6372 18.1231 12.7725C23.2481 10.5073 28.5523 8.66722 33.9816 7.27096C34.3588 7.13398 34.7649 7.09522 35.1614 7.15836C35.5579 7.2215 35.9316 7.38444 36.2471 7.63172C40.4984 9.86851 44.5864 12.4 48.4808 15.2076Z" fill="#BF7510"/>
<path id="Path 534" d="M36.9721 44.4289C35.7034 45.6014 34.7066 45.421 33.2566 44.4289C28.0007 41.0017 22.7447 37.8451 17.3981 34.5081C16.8544 34.5081 16.0388 33.967 15.6763 33.2455C15.3138 32.524 16.2201 31.3515 17.3981 31.1711C23.4697 34.3277 28.9975 38.1157 34.7972 41.7232C35.6128 42.1742 36.1565 43.0761 37.2439 42.7153C38.3314 42.3546 35.6128 43.6172 36.9721 44.4289Z" fill="#82091A"/>
<path id="Path 535" d="M37.2433 42.8056C42.3181 40.2803 47.3928 37.5746 52.7394 35.2297C52.8816 35.7676 52.8104 36.3393 52.5404 36.8263C52.2704 37.3133 51.8225 37.6781 51.2895 37.8452C46.4866 40.1901 42.2274 42.8056 36.8809 44.8799C35.6122 43.6173 37.2433 43.3467 37.2433 42.8056Z" fill="#5D0507"/>
<path id="Path 536" d="M17.2164 13.2237C18.1227 13.2237 17.6695 14.3962 17.2164 14.9373C17.2164 18.6351 17.2164 22.423 17.2164 26.1208C17.3038 26.8397 17.3038 27.5664 17.2164 28.2853C17.2164 29.2774 16.7633 30.4498 17.8508 31.2615C16.6727 31.2615 16.854 32.7046 16.129 33.3359C15.8568 30.3357 15.8568 27.3172 16.129 24.317C16.129 21.5211 16.129 18.7253 16.129 15.8392C16.2431 14.8845 16.6193 13.9795 17.2164 13.2237Z" fill="#62090A"/>
<path id="Path 537" d="M34.3435 5.28719C35.0009 5.17079 35.6782 5.2992 36.2465 5.64794C42.3437 8.60289 48.1401 12.1366 53.555 16.2C54.3706 16.9216 55.0955 17.5529 54.8237 18.7253C48.6836 13.7287 41.9591 9.48916 34.7966 6.09889L34.3435 5.28719Z" fill="#B6620A"/>
</g>
</svg>
