<svg width="12" height="12" viewBox="0 0 12 12" fill="none" xmlns="http://www.w3.org/2000/svg">
<g clip-path="url(#clip0_12_98)">
<path d="M10.2521 6.0945C10.2598 6.16686 10.2551 6.25329 10.2522 6.32682C10.2162 7.25318 9.74483 8.27601 9.09995 8.92693C8.6727 9.35904 8.1609 9.69834 7.59654 9.92361C7.26896 10.0548 6.98521 10.11 6.63801 10.1595C6.10276 10.2357 5.55975 10.2052 5.03109 10.0892C4.62114 9.99936 4.20723 9.79481 3.83856 9.60009C3.36325 9.3344 2.92498 8.88847 2.59519 8.45849C2.42627 8.22634 2.25151 7.85353 2.13063 7.58969C2.11153 7.51393 2.02298 7.37056 2.01403 7.29815C1.98984 7.10263 1.87131 6.7818 1.85457 6.60363C1.83415 6.22033 1.82062 5.80558 1.85154 5.42325C1.86241 5.28881 1.96301 4.82269 2.00738 4.68648C2.11946 4.39679 2.22827 4.1292 2.37976 3.85589C2.6894 3.29726 3.22492 2.75248 3.75783 2.40477C4.0777 2.19607 4.50713 2.0379 4.86155 1.90873C4.95155 1.87593 5.28878 1.81362 5.36563 1.8571C5.39363 1.89436 5.38623 2.13142 5.38707 2.19319C5.38152 2.27566 5.37978 2.34966 5.34974 2.42794C5.33858 2.45703 5.33092 2.47516 5.32746 2.50631C5.32303 2.65789 5.33195 2.81543 5.32468 2.96502C5.3072 3.32494 5.33321 3.69012 5.28238 4.04661C5.27743 4.0813 5.19554 4.13755 5.16641 4.15256C3.71506 4.90024 3.60216 6.83407 4.99339 7.71674C6.13777 8.43298 7.59655 7.81429 7.99559 6.55615C8.01552 6.49377 8.03172 6.43026 8.04413 6.36596C8.05876 6.28635 8.02993 6.12046 8.14947 6.11222C8.31054 6.10111 8.4772 6.10663 8.63916 6.10689L9.65172 6.10682C9.82339 6.10668 10.0882 6.11408 10.2521 6.0945Z" fill="#2684C4"/>
<path d="M8.54809 2.63637C8.90942 2.62056 9.12463 2.95435 8.92866 3.27545C8.86353 3.38215 8.76274 3.41391 8.64423 3.43345C8.51051 3.43916 8.42774 3.43533 8.30776 3.35242C8.13567 3.23351 8.13235 2.93485 8.24762 2.77723C8.30831 2.69425 8.44401 2.64876 8.54809 2.63637Z" fill="#F15524"/>
<path d="M9.40816 3.69032C9.63119 3.67024 9.82979 3.83105 9.85656 4.05337C9.88331 4.27569 9.72854 4.47904 9.50712 4.51246C9.35786 4.53499 9.20815 4.47454 9.11639 4.35468C9.02463 4.23482 9.00533 4.07453 9.06603 3.93631C9.12673 3.7981 9.25781 3.70385 9.40816 3.69032Z" fill="#F15524"/>
<path d="M7.41443 1.93814C7.6399 1.91928 7.8381 2.08648 7.85749 2.31191C7.87689 2.53734 7.71017 2.73594 7.48478 2.75587C7.25864 2.77588 7.05922 2.60847 7.03975 2.38227C7.02029 2.15607 7.18818 1.95706 7.41443 1.93814Z" fill="#F15524"/>
<path d="M9.80148 4.95498C10.0276 4.93658 10.2256 5.10519 10.2436 5.33129C10.2615 5.55741 10.0925 5.75515 9.86639 5.77265C9.64089 5.79008 9.44383 5.62167 9.42594 5.3962C9.40804 5.17074 9.57605 4.97334 9.80148 4.95498Z" fill="#F15524"/>
<path d="M6.12886 1.67402C6.35227 1.66521 6.54146 1.83717 6.55397 2.0604C6.56646 2.28362 6.39765 2.47563 6.17466 2.49182C6.02711 2.50254 5.88524 2.43284 5.80354 2.3095C5.72183 2.18616 5.71299 2.02834 5.78041 1.89665C5.84783 1.76495 5.98103 1.67985 6.12886 1.67402Z" fill="#F15524"/>
<path d="M8.35342 4.19287C8.46242 4.19051 8.49899 4.21175 8.59266 4.25877C8.60478 4.27822 8.61637 4.29802 8.62741 4.31811C8.69918 4.45092 8.66431 4.61053 8.62335 4.74642C8.51762 4.79363 8.45633 4.80849 8.34342 4.81833C8.27903 4.82204 8.21959 4.79833 8.16372 4.76837C7.99134 4.67592 8.00258 4.41543 8.09466 4.26981C8.19947 4.21921 8.23787 4.20365 8.35342 4.19287Z" fill="#2684C4"/>
<path d="M7.54162 4.07045C7.35215 3.91206 7.40401 3.4866 7.71765 3.46553C7.80349 3.45908 7.8882 3.48825 7.95187 3.54618C7.9767 3.56853 8.00479 3.59741 8.02873 3.62134C8.05553 3.74544 8.08121 3.98121 7.95518 4.05997C7.81922 4.14006 7.68101 4.13922 7.54162 4.07045Z" fill="#2684C4"/>
<path d="M8.68706 5.13526C8.86061 5.1015 9.02922 5.21306 9.06599 5.38602C9.10275 5.55898 8.99411 5.72948 8.82182 5.76924C8.72089 5.79253 8.61489 5.76617 8.53662 5.6983C8.44295 5.61708 8.40381 5.48953 8.43581 5.36976C8.46782 5.24997 8.56536 5.15894 8.68706 5.13526Z" fill="#2684C4"/>
<path d="M6.91526 3.01234C6.96871 3.00513 7.10333 3.06177 7.16191 3.08217C7.20196 3.13885 7.25646 3.2168 7.26294 3.28492C7.28428 3.50953 7.17901 3.61433 6.981 3.65121C6.90372 3.66017 6.8488 3.64427 6.7787 3.6117C6.58543 3.52189 6.59978 3.2758 6.68677 3.11288C6.76594 3.07543 6.83058 3.03695 6.91526 3.01234Z" fill="#2684C4"/>
<path d="M5.90564 2.81261C6.05416 2.80772 6.09614 2.82985 6.21402 2.91175C6.31485 3.14012 6.33306 3.37582 6.03119 3.4286C5.52691 3.47582 5.56309 2.86492 5.90564 2.81261Z" fill="#2684C4"/>
<path d="M5.86204 3.82137C5.94117 3.81446 6.01342 3.86853 6.07916 3.9088C6.1059 4.0776 6.09454 4.16474 5.92117 4.22042C5.70691 4.26158 5.62662 3.99099 5.75727 3.851L5.86204 3.82137Z" fill="#2684C4"/>
<path d="M6.47241 3.90005C6.56832 3.89508 6.63944 3.91575 6.68331 4.00771C6.75565 4.15938 6.66364 4.25344 6.54197 4.31203C6.29348 4.32598 6.20656 4.03036 6.47241 3.90005Z" fill="#2684C4"/>
<path d="M7.80037 5.26256C7.86388 5.26124 7.90178 5.28541 7.96712 5.29843C7.97833 5.31927 7.98907 5.34037 7.99933 5.36169C8.04526 5.45856 8.03865 5.52901 8.00516 5.62387C7.96405 5.63374 7.9237 5.63942 7.88201 5.64586C7.8156 5.65174 7.76249 5.64664 7.69704 5.63746C7.68805 5.6223 7.67979 5.60674 7.67228 5.59079C7.62393 5.48793 7.64236 5.39993 7.67797 5.30037L7.80037 5.26256Z" fill="#2684C4"/>
<path d="M7.52973 4.70126C7.80443 4.67293 7.83125 5.05137 7.60377 5.08592C7.5172 5.08854 7.49969 5.08598 7.42165 5.05697C7.31039 4.90245 7.33242 4.75087 7.52973 4.70126Z" fill="#2684C4"/>
<path d="M7.08083 4.22683C7.15998 4.21975 7.17891 4.22522 7.25357 4.24562C7.33813 4.36116 7.35877 4.43702 7.29869 4.57034L7.20578 4.59134C7.12884 4.5971 7.06796 4.59331 6.99199 4.58328C6.98694 4.57413 6.98214 4.56485 6.97758 4.55545C6.92307 4.44494 6.93679 4.35666 6.97348 4.24696L7.08083 4.22683Z" fill="#2684C4"/>
<path d="M5.38707 2.19319C5.39758 2.28485 5.3897 2.41545 5.38632 2.51064C5.38257 2.61656 5.41595 2.88818 5.38344 2.97481L5.37447 2.97637C5.33328 2.9093 5.40122 2.55625 5.34802 2.49988L5.32746 2.50631C5.33092 2.47516 5.33858 2.45703 5.34974 2.42794C5.37978 2.34966 5.38152 2.27566 5.38707 2.19319Z" fill="#2684C4"/>
</g>
<defs>
<clipPath id="clip0_12_98">
<rect width="9" height="9" fill="white" transform="translate(1.59999 1.5)"/>
</clipPath>
</defs>
</svg>
